# xmcd CD database file
#
# Track frame offsets:
#	150
#	26384
#	75424
#	117465
#	194267
#	215941
#	242995
#	266940
#	291337
#
# Disc length: 4245 seconds
#
# Revision: 0
# Processed by: cddbd v1.5.2PL0 Copyright (c) Steve Scherf et al.
# Submitted via: CDex 1.70beta2
#
DISCID=8b109309
DTITLE=Die drei Fragezeichen - 131 - Haus des Schreckens
DYEAR=2009
DGENRE=Hörspiel
TTITLE0=Marrott's Island
TTITLE1=Das Haus der Geister
TTITLE2=Der Mörder geht um
TTITLE3=Das Fenster im Boden
TTITLE4=Schritte in der Wand
TTITLE5=Das Archiv
TTITLE6=Es stinkt
TTITLE7=Bericht aus der Hölle
TTITLE8=Das Spiel ist aus
EXTD=YEAR: 2009
EXTT0=
EXTT1=
EXTT2=
EXTT3=
EXTT4=
EXTT5=
EXTT6=
EXTT7=
EXTT8=
PLAYORDER=
